<svg version="1.1" xmlns="http://www.w3.org/2000/svg" viewBox="0 0 3734.3753474858345 1929.8083935840486" width="7468.750694971669" height="3859.6167871680973"><!-- svg-source:excalidraw --><metadata></metadata><defs><style class="style-fonts">
      @font-face { font-family: Excalifont; src: url(https://esm.sh/@excalidraw/excalidraw/dist/prod/fonts/Excalifont/Excalifont-Regular-a88b72a24fb54c9f94e3b5fdaa7481c9.woff2); }</style></defs><rect x="0" y="0" width="3734.3753474858345" height="1929.8083935840486" fill="#ffffff"></rect><g stroke-linecap="round"><g transform="translate(437.1428571428587 613.2112187676953) rotate(0 65.0450204425099 -1.4295608888463676)"><path d="M0.87 -0.57 C22.42 -0.86, 108.27 -2.5, 129.91 -2.86 M-0.13 1.75 C21.18 1.76, 107.14 -0.8, 128.87 -1.33" stroke="#1e1e1e" stroke-width="2" fill="none"></path></g><g transform="translate(437.1428571428587 613.2112187676953) rotate(0 65.0450204425099 -1.4295608888463676)"><path d="M24.21 -9.53 C14.91 -6.48, 7.57 -1.97, 0.87 -0.57 M24.21 -9.53 C16.99 -5.73, 10.1 -4.57, 0.87 -0.57" stroke="#1e1e1e" stroke-width="2" fill="none"></path></g><g transform="translate(437.1428571428587 613.2112187676953) rotate(0 65.0450204425099 -1.4295608888463676)"><path d="M24.51 7.57 C15.26 4.56, 7.82 3.01, 0.87 -0.57 M24.51 7.57 C17.14 6.11, 10.16 2, 0.87 -0.57" stroke="#1e1e1e" stroke-width="2" fill="none"></path></g><g transform="translate(437.1428571428587 613.2112187676953) rotate(0 65.0450204425099 -1.4295608888463676)"><path d="M105.62 7.85 C113 4.13, 122.19 2.21, 128.87 -1.33 M105.62 7.85 C112.69 5.62, 120.15 1.19, 128.87 -1.33" stroke="#1e1e1e" stroke-width="2" fill="none"></path></g><g transform="translate(437.1428571428587 613.2112187676953) rotate(0 65.0450204425099 -1.4295608888463676)"><path d="M105.16 -9.25 C112.55 -6.9, 121.89 -2.77, 128.87 -1.33 M105.16 -9.25 C112.42 -6.22, 120.02 -5.38, 128.87 -1.33" stroke="#1e1e1e" stroke-width="2" fill="none"></path></g></g><mask></mask><g transform="translate(37.49603174603408 223.10407591055167) rotate(0 63.08333206176758 12.5)"><text x="0" y="17.619999999999997" font-family="Excalifont, Xiaolai, Segoe UI Emoji" font-size="20px" fill="#1e1e1e" text-anchor="start" style="white-space: pre;" direction="ltr" dominant-baseline="alphabetic">Power Supply</text></g><g transform="translate(200.9722222222249 354.10407591055167) rotate(0 61.83333206176758 12.5)"><text x="0" y="17.619999999999997" font-family="Excalifont, Xiaolai, Segoe UI Emoji" font-size="20px" fill="#1e1e1e" text-anchor="start" style="white-space: pre;" direction="ltr" dominant-baseline="alphabetic">Motherboard</text></g><g stroke-linecap="round"><g transform="translate(96.68650793651022 255.53264733912312) rotate(0 75.71428571428578 47.14285714285711)"><path d="M-0.35 1.12 C25.02 16.89, 125.97 79.16, 151.12 94.68 M1.67 0.66 C26.95 16.05, 124.79 76.95, 150.01 92.76" stroke="#1e1e1e" stroke-width="2" fill="none"></path></g><g transform="translate(96.68650793651022 255.53264733912312) rotate(0 75.71428571428578 47.14285714285711)"><path d="M125.55 87.58 C132.55 88.22, 136.48 88.4, 150.01 92.76 M125.55 87.58 C133.04 89.15, 141.03 91.39, 150.01 92.76" stroke="#1e1e1e" stroke-width="2" fill="none"></path></g><g transform="translate(96.68650793651022 255.53264733912312) rotate(0 75.71428571428578 47.14285714285711)"><path d="M134.61 73.07 C139.71 76.73, 141.74 79.95, 150.01 92.76 M134.61 73.07 C139.49 78.98, 144.8 85.51, 150.01 92.76" stroke="#1e1e1e" stroke-width="2" fill="none"></path></g></g><mask></mask><g transform="translate(368.27380952381054 496.1675679740442) rotate(0 65.23332977294922 12.5)"><text x="0" y="17.619999999999997" font-family="Excalifont, Xiaolai, Segoe UI Emoji" font-size="20px" fill="#1e1e1e" text-anchor="start" style="white-space: pre;" direction="ltr" dominant-baseline="alphabetic">Firmware Chip</text></g><g stroke-linecap="round"><g transform="translate(241.63320487556484 390.6120124184885) rotate(0 105.63571653577424 51.111111111111086)"><path d="M-0.38 0.77 C34.86 18.03, 174.96 86.31, 210.26 103.21 M1.62 0.13 C37.32 17.1, 177.59 84.39, 212.44 101.61" stroke="#1e1e1e" stroke-width="2" fill="none"></path></g><g transform="translate(241.63320487556484 390.6120124184885) rotate(0 105.63571653577424 51.111111111111086)"><path d="M187.57 99.04 C193.89 97.95, 199.3 100.37, 212.44 101.61 M187.57 99.04 C194.02 99.08, 202.01 100.06, 212.44 101.61" stroke="#1e1e1e" stroke-width="2" fill="none"></path></g><g transform="translate(241.63320487556484 390.6120124184885) rotate(0 105.63571653577424 51.111111111111086)"><path d="M195.05 83.66 C199.8 85.66, 203.7 91.2, 212.44 101.61 M195.05 83.66 C199.33 88.28, 205.1 93.83, 212.44 101.61" stroke="#1e1e1e" stroke-width="2" fill="none"></path></g></g><mask></mask><g stroke-linecap="round" transform="translate(568.7500000000032 550.7707425772194) rotate(0 166.66666666666674 57.22222222222217)"><path d="M28.61 0 C131.1 -1.1, 233.82 0.93, 304.72 0 M28.61 0 C85.49 -1.78, 140.89 -1.83, 304.72 0 M304.72 0 C322.94 0.52, 333.9 9.09, 333.33 28.61 M304.72 0 C321.6 1.9, 331.07 10.01, 333.33 28.61 M333.33 28.61 C331.3 43.18, 334.34 55.12, 333.33 85.83 M333.33 28.61 C333.24 43.64, 333.91 57.86, 333.33 85.83 M333.33 85.83 C335.07 106.73, 325.72 113.44, 304.72 114.44 M333.33 85.83 C333.96 103.39, 321.92 116.48, 304.72 114.44 M304.72 114.44 C203.05 114.1, 104.4 114.53, 28.61 114.44 M304.72 114.44 C197.73 115.67, 90.69 115.81, 28.61 114.44 M28.61 114.44 C8.87 113.19, -1.63 103.21, 0 85.83 M28.61 114.44 C8.26 114.04, 0.52 104.56, 0 85.83 M0 85.83 C-1.39 70.93, 2.17 57.86, 0 28.61 M0 85.83 C0.84 66.7, -0.18 48.64, 0 28.61 M0 28.61 C0.96 8.74, 7.77 -0.45, 28.61 0 M0 28.61 C-2.04 7.71, 11.37 -0.73, 28.61 0" stroke="#1e1e1e" stroke-width="2" fill="none"></path></g><g transform="translate(714.8499991099075 595.4929647994416) rotate(0 20.566667556762695 12.5)"><text x="20.566667556762695" y="17.619999999999997" font-family="Excalifont, Xiaolai, Segoe UI Emoji" font-size="20px" fill="#1e1e1e" text-anchor="middle" style="white-space: pre;" direction="ltr" dominant-baseline="alphabetic">CPU</text></g><g stroke-linecap="round" transform="translate(562.0833333333367 689.6596314661083) rotate(0 166.66666666666674 57.22222222222217)"><path d="M28.61 0 C95.69 2.19, 166.27 -0.34, 304.72 0 M28.61 0 C99.05 -0.34, 168.73 -0.03, 304.72 0 M304.72 0 C322.45 0.95, 334.7 9.41, 333.33 28.61 M304.72 0 C322.39 0.13, 334.91 8, 333.33 28.61 M333.33 28.61 C331.73 41.28, 332.91 50.75, 333.33 85.83 M333.33 28.61 C333.11 49.31, 334.37 72.73, 333.33 85.83 M333.33 85.83 C331.45 103.77, 323.17 114.35, 304.72 114.44 M333.33 85.83 C334.24 106.15, 322.35 112.46, 304.72 114.44 M304.72 114.44 C233.66 113.99, 164.69 112.8, 28.61 114.44 M304.72 114.44 C244 111.67, 183.91 111.62, 28.61 114.44 M28.61 114.44 C7.58 112.7, -0.46 105.76, 0 85.83 M28.61 114.44 C8.62 113.82, 1.88 104.33, 0 85.83 M0 85.83 C-0.26 65.31, -0.34 41.79, 0 28.61 M0 85.83 C-0.07 73.21, 1.28 58.52, 0 28.61 M0 28.61 C1.07 11.2, 9.3 -1.49, 28.61 0 M0 28.61 C-1.58 9.36, 8.17 1.54, 28.61 0" stroke="#1e1e1e" stroke-width="2" fill="none"></path></g><g transform="translate(706.9500007629426 734.3818536883305) rotate(0 21.799999237060547 12.5)"><text x="21.799999237060547" y="17.619999999999997" font-family="Excalifont, Xiaolai, Segoe UI Emoji" font-size="20px" fill="#1e1e1e" text-anchor="middle" style="white-space: pre;" direction="ltr" dominant-baseline="alphabetic">RAM</text></g><g stroke-linecap="round" transform="translate(563.1944444444475 839.1040759105526) rotate(0 166.66666666666674 57.22222222222217)"><path d="M28.61 0 C130.63 0.3, 229.3 -0.22, 304.72 0 M28.61 0 C125.73 0.28, 221.82 -1.1, 304.72 0 M304.72 0 C325.54 1, 333.71 10.16, 333.33 28.61 M304.72 0 C322.46 1.79, 334.17 8.48, 333.33 28.61 M333.33 28.61 C334.46 39.3, 331.32 51.08, 333.33 85.83 M333.33 28.61 C333.91 42.66, 334.63 58.13, 333.33 85.83 M333.33 85.83 C332.59 103.17, 324.11 114.11, 304.72 114.44 M333.33 85.83 C333.87 105.23, 323.54 114.03, 304.72 114.44 M304.72 114.44 C208.04 115.47, 114.46 115.14, 28.61 114.44 M304.72 114.44 C231.94 115.86, 160.8 114.8, 28.61 114.44 M28.61 114.44 C9.81 113.42, 0.1 104.08, 0 85.83 M28.61 114.44 C7.84 113.45, 0.85 106.06, 0 85.83 M0 85.83 C-0.92 73.83, 0.3 60.2, 0 28.61 M0 85.83 C0.32 65.99, -0.51 46.74, 0 28.61 M0 28.61 C-1.44 8.57, 9.35 1.67, 28.61 0 M0 28.61 C1.12 8.1, 8.42 -0.78, 28.61 0" stroke="#1e1e1e" stroke-width="2" fill="none"></path></g><g transform="translate(707.7777771419983 883.8262981327748) rotate(0 22.08333396911621 12.5)"><text x="22.08333396911621" y="17.619999999999997" font-family="Excalifont, Xiaolai, Segoe UI Emoji" font-size="20px" fill="#1e1e1e" text-anchor="middle" style="white-space: pre;" direction="ltr" dominant-baseline="alphabetic">GPU</text></g><g stroke-linecap="round" transform="translate(563.1944444444475 1007.4374092438859) rotate(0 166.66666666666674 57.22222222222217)"><path d="M28.61 0 C96.91 0.75, 161.65 1.37, 304.72 0 M28.61 0 C134.06 1.5, 238.81 1.38, 304.72 0 M304.72 0 C324.32 1.31, 334.36 8.3, 333.33 28.61 M304.72 0 C325.87 1.56, 333.22 8.1, 333.33 28.61 M333.33 28.61 C333.79 46.1, 332.33 66.01, 333.33 85.83 M333.33 28.61 C332.55 41.86, 333.21 57.29, 333.33 85.83 M333.33 85.83 C332.02 106.07, 324.16 114.68, 304.72 114.44 M333.33 85.83 C331.75 105.1, 324.88 115.58, 304.72 114.44 M304.72 114.44 C198.45 116.63, 93.1 114.81, 28.61 114.44 M304.72 114.44 C229.59 116.49, 154.18 115.14, 28.61 114.44 M28.61 114.44 C11.54 113.96, 1.49 106.86, 0 85.83 M28.61 114.44 C9.47 115, 1.78 105.19, 0 85.83 M0 85.83 C-1.12 73.18, 0.87 62.04, 0 28.61 M0 85.83 C0.1 66.11, 1.43 46.33, 0 28.61 M0 28.61 C0.08 11.21, 11.35 1.96, 28.61 0 M0 28.61 C-1.88 10.36, 8.34 0.92, 28.61 0" stroke="#1e1e1e" stroke-width="2" fill="none"></path></g><g transform="translate(678.411110348175 1052.159631466108) rotate(0 51.45000076293945 12.5)"><text x="51.45000076293945" y="17.619999999999997" font-family="Excalifont, Xiaolai, Segoe UI Emoji" font-size="20px" fill="#1e1e1e" text-anchor="middle" style="white-space: pre;" direction="ltr" dominant-baseline="alphabetic">STORAGE</text></g><g stroke-linecap="round" transform="translate(570.0169892628023 1771.6776896259098) rotate(0 166.66666666666674 57.22222222222217)"><path d="M28.61 0 C84.42 1.05, 143.92 -1.12, 304.72 0 M28.61 0 C107.82 -0.17, 187.37 -0.51, 304.72 0 M304.72 0 C325.18 0.39, 332.44 8.99, 333.33 28.61 M304.72 0 C324.55 -2.22, 331.71 8.38, 333.33 28.61 M333.33 28.61 C335.08 50.53, 335.2 69.77, 333.33 85.83 M333.33 28.61 C334.2 44.74, 333.28 60.29, 333.33 85.83 M333.33 85.83 C334.69 104.26, 323.24 114.03, 304.72 114.44 M333.33 85.83 C334.87 104.47, 324.53 114.36, 304.72 114.44 M304.72 114.44 C198.29 112.66, 90.51 111.76, 28.61 114.44 M304.72 114.44 C206.04 115.01, 106.34 114.36, 28.61 114.44 M28.61 114.44 C9.97 115.8, 0.25 104.75, 0 85.83 M28.61 114.44 C8.15 113.32, 1.15 104.71, 0 85.83 M0 85.83 C-1.23 71.77, -0.89 52.89, 0 28.61 M0 85.83 C0.36 70.58, 1.12 56.12, 0 28.61 M0 28.61 C0.31 7.85, 10.16 1.26, 28.61 0 M0 28.61 C1.09 7.28, 11.69 -1.5, 28.61 0" stroke="#1e1e1e" stroke-width="2" fill="none"></path></g><g transform="translate(626.9836589812267 1816.399911848132) rotate(0 109.69999694824219 12.5)"><text x="109.69999694824219" y="17.619999999999997" font-family="Excalifont, Xiaolai, Segoe UI Emoji" font-size="20px" fill="#1e1e1e" text-anchor="middle" style="white-space: pre;" direction="ltr" dominant-baseline="alphabetic">Additional Components</text></g><g stroke-linecap="round" transform="translate(560.8134920634948 1199.8977267042033) rotate(0 166.66666666666674 57.22222222222217)"><path d="M28.61 0 C97.15 -2.52, 165.38 -0.06, 304.72 0 M28.61 0 C88.86 0.33, 150.03 0.78, 304.72 0 M304.72 0 C325.05 -0.87, 335.12 10.51, 333.33 28.61 M304.72 0 C321.91 0.99, 333.62 9.94, 333.33 28.61 M333.33 28.61 C333.97 52.13, 331.19 74.75, 333.33 85.83 M333.33 28.61 C333.02 50.24, 333.55 72.59, 333.33 85.83 M333.33 85.83 C332.12 104.24, 321.82 113.39, 304.72 114.44 M333.33 85.83 C331.16 104.75, 322.83 115.12, 304.72 114.44 M304.72 114.44 C228.89 116.13, 152.3 115.13, 28.61 114.44 M304.72 114.44 C197.98 113.96, 91.82 113.59, 28.61 114.44 M28.61 114.44 C10.83 115.92, -0.7 103.43, 0 85.83 M28.61 114.44 C9.34 116.6, -2.13 104.5, 0 85.83 M0 85.83 C-1.99 73.29, -1.46 59.51, 0 28.61 M0 85.83 C0.27 68.74, -0.5 52.89, 0 28.61 M0 28.61 C0.62 7.96, 7.7 -0.59, 28.61 0 M0 28.61 C-2.07 8.35, 11.23 1.78, 28.61 0" stroke="#1e1e1e" stroke-width="2" fill="none"></path></g><g transform="translate(690.4634923178078 1244.6199489264254) rotate(0 37.016666412353516 12.5)"><text x="37.016666412353516" y="17.619999999999997" font-family="Excalifont, Xiaolai, Segoe UI Emoji" font-size="20px" fill="#1e1e1e" text-anchor="middle" style="white-space: pre;" direction="ltr" dominant-baseline="alphabetic">Monitor</text></g><g stroke-linecap="round"><g transform="translate(434.28571428571604 530.3540759105526) rotate(0 -0.07793907584414228 694.7037832809401)"><path d="M1.04 -0.88 C1.08 230.68, 0.2 1156.79, -0.08 1388.43 M0.12 1.27 C0.04 233.03, -0.68 1158, -0.98 1389.45" stroke="#1e1e1e" stroke-width="2" fill="none"></path></g></g><mask></mask><g stroke-linecap="round"><g transform="translate(434.28571428571604 747.4969330534097) rotate(0 62.14285714285688 -0.7142857142857224)"><path d="M-0.88 -0.63 C19.89 -0.78, 104.57 -1.13, 125.25 -1.26 M0.86 1.66 C21.5 1.76, 104.04 0.66, 124.81 0.36" stroke="#1e1e1e" stroke-width="2" fill="none"></path></g><g transform="translate(434.28571428571604 747.4969330534097) rotate(0 62.14285714285688 -0.7142857142857224)"><path d="M22.57 -9.3 C13.24 -4.81, 6.31 -5.2, -0.88 -0.63 M22.57 -9.3 C14.59 -6.65, 8.82 -3.64, -0.88 -0.63" stroke="#1e1e1e" stroke-width="2" fill="none"></path></g><g transform="translate(434.28571428571604 747.4969330534097) rotate(0 62.14285714285688 -0.7142857142857224)"><path d="M22.65 7.81 C13.35 6.27, 6.39 -0.14, -0.88 -0.63 M22.65 7.81 C14.7 5.37, 8.91 3.29, -0.88 -0.63" stroke="#1e1e1e" stroke-width="2" fill="none"></path></g><g transform="translate(434.28571428571604 747.4969330534097) rotate(0 62.14285714285688 -0.7142857142857224)"><path d="M101.43 9.23 C108.64 7.88, 118.19 1.32, 124.81 0.36 M101.43 9.23 C107.43 6.32, 115.59 4.12, 124.81 0.36" stroke="#1e1e1e" stroke-width="2" fill="none"></path></g><g transform="translate(434.28571428571604 747.4969330534097) rotate(0 62.14285714285688 -0.7142857142857224)"><path d="M101.2 -7.87 C108.44 -3.19, 118.07 -3.74, 124.81 0.36 M101.2 -7.87 C107.22 -5.69, 115.45 -2.81, 124.81 0.36" stroke="#1e1e1e" stroke-width="2" fill="none"></path></g></g><mask></mask><g stroke-linecap="round"><g transform="translate(440.00000000000136 895.8302663867432) rotate(0 61.12488943152721 1.4215090565471655)"><path d="M-0.83 0.43 C19.74 0.65, 102.67 1.63, 123.17 2.2 M0.94 -0.39 C21.45 -0.09, 102.63 3, 122.71 3.4" stroke="#1e1e1e" stroke-width="2" fill="none"></path></g><g transform="translate(440.00000000000136 895.8302663867432) rotate(0 61.12488943152721 1.4215090565471655)"><path d="M22.77 -7.82 C16.9 -4.13, 8.46 -3.44, -0.83 0.43 M22.77 -7.82 C13.69 -4.39, 4.76 -1.3, -0.83 0.43" stroke="#1e1e1e" stroke-width="2" fill="none"></path></g><g transform="translate(440.00000000000136 895.8302663867432) rotate(0 61.12488943152721 1.4215090565471655)"><path d="M22.55 9.28 C16.62 8.16, 8.25 4.03, -0.83 0.43 M22.55 9.28 C13.69 6.19, 4.84 2.75, -0.83 0.43" stroke="#1e1e1e" stroke-width="2" fill="none"></path></g><g transform="translate(440.00000000000136 895.8302663867432) rotate(0 61.12488943152721 1.4215090565471655)"><path d="M98.97 11.24 C106.31 10.73, 111.21 6.88, 122.71 3.4 M98.97 11.24 C108.07 8.64, 117.2 5.59, 122.71 3.4" stroke="#1e1e1e" stroke-width="2" fill="none"></path></g><g transform="translate(440.00000000000136 895.8302663867432) rotate(0 61.12488943152721 1.4215090565471655)"><path d="M99.48 -5.85 C106.8 -1.55, 111.55 -0.59, 122.71 3.4 M99.48 -5.85 C108.26 -1.93, 117.19 1.54, 122.71 3.4" stroke="#1e1e1e" stroke-width="2" fill="none"></path></g></g><mask></mask><g stroke-linecap="round"><g transform="translate(446.6666666666679 1065.5921711486478) rotate(0 54.28571428571422 -1.4285714285713311)"><path d="M-0.77 1.02 C17.06 0.3, 89.34 -3.5, 107.43 -4.02 M1.02 0.51 C19.17 -0.14, 91.35 -2.33, 109.55 -3.09" stroke="#1e1e1e" stroke-width="2" fill="none"></path></g><g transform="translate(446.6666666666679 1065.5921711486478) rotate(0 54.28571428571422 -1.4285714285713311)"><path d="M22.28 -8.65 C16.29 -7.46, 4.93 -3.68, -0.77 1.02 M22.28 -8.65 C13.43 -4.43, 6.22 -0.87, -0.77 1.02" stroke="#1e1e1e" stroke-width="2" fill="none"></path></g><g transform="translate(446.6666666666679 1065.5921711486478) rotate(0 54.28571428571422 -1.4285714285713311)"><path d="M23.1 8.43 C16.79 3.9, 5.16 1.95, -0.77 1.02 M23.1 8.43 C13.84 6.45, 6.34 3.83, -0.77 1.02" stroke="#1e1e1e" stroke-width="2" fill="none"></path></g><g transform="translate(446.6666666666679 1065.5921711486478) rotate(0 54.28571428571422 -1.4285714285713311)"><path d="M86.37 6.29 C95.81 1.4, 99.94 -1.21, 109.55 -3.09 M86.37 6.29 C94.15 3.82, 103.69 0.48, 109.55 -3.09" stroke="#1e1e1e" stroke-width="2" fill="none"></path></g><g transform="translate(446.6666666666679 1065.5921711486478) rotate(0 54.28571428571422 -1.4285714285713311)"><path d="M85.77 -10.8 C95.45 -9.97, 99.78 -6.84, 109.55 -3.09 M85.77 -10.8 C93.87 -7.07, 103.64 -4.22, 109.55 -3.09" stroke="#1e1e1e" stroke-width="2" fill="none"></path></g></g><mask></mask><g stroke-linecap="round"><g transform="translate(443.3333333333344 1262.0207425772192) rotate(0 57.90676900403446 -1.429796765531819)"><path d="M-0.6 -1.17 C18.75 -1.58, 97.42 -1.8, 116.99 -2.28 M1.28 0.83 C20.5 0.05, 97.44 -3.4, 116.67 -4.1" stroke="#1e1e1e" stroke-width="2" fill="none"></path></g><g transform="translate(443.3333333333344 1262.0207425772192) rotate(0 57.90676900403446 -1.429796765531819)"><path d="M22.82 -9.92 C12.11 -4.79, 6.26 -1.73, -0.6 -1.17 M22.82 -9.92 C17.9 -7.44, 12.98 -5.3, -0.6 -1.17" stroke="#1e1e1e" stroke-width="2" fill="none"></path></g><g transform="translate(443.3333333333344 1262.0207425772192) rotate(0 57.90676900403446 -1.429796765531819)"><path d="M22.96 7.18 C12.18 5.9, 6.27 2.56, -0.6 -1.17 M22.96 7.18 C17.98 6.21, 13.03 4.9, -0.6 -1.17" stroke="#1e1e1e" stroke-width="2" fill="none"></path></g><g transform="translate(443.3333333333344 1262.0207425772192) rotate(0 57.90676900403446 -1.429796765531819)"><path d="M93.54 5.41 C100.24 3.94, 111.81 0.16, 116.67 -4.1 M93.54 5.41 C97.99 3.76, 102.46 2.22, 116.67 -4.1" stroke="#1e1e1e" stroke-width="2" fill="none"></path></g><g transform="translate(443.3333333333344 1262.0207425772192) rotate(0 57.90676900403446 -1.429796765531819)"><path d="M92.84 -11.68 C99.82 -6.75, 111.66 -4.13, 116.67 -4.1 M92.84 -11.68 C97.46 -9.88, 102.08 -7.98, 116.67 -4.1" stroke="#1e1e1e" stroke-width="2" fill="none"></path></g></g><mask></mask><g stroke-linecap="round"><g transform="translate(435.8787198871014 1832.0107132026478) rotate(0 64.94018564947032 -0.03735175166298177)"><path d="M0.67 1 C22.53 1.07, 108.62 -0.53, 130.17 -0.53 M-0.44 0.49 C21.38 0.8, 107.76 0.98, 129.38 0.77" stroke="#1e1e1e" stroke-width="2" fill="none"></path></g><g transform="translate(435.8787198871014 1832.0107132026478) rotate(0 64.94018564947032 -0.03735175166298177)"><path d="M24.05 -7.84 C20.6 -5.31, 13.12 -3.73, 0.67 1 M24.05 -7.84 C15.74 -5.11, 6.74 -1.44, 0.67 1" stroke="#1e1e1e" stroke-width="2" fill="none"></path></g><g transform="translate(435.8787198871014 1832.0107132026478) rotate(0 64.94018564947032 -0.03735175166298177)"><path d="M24.27 9.26 C20.9 8.1, 13.38 5.98, 0.67 1 M24.27 9.26 C15.99 5.33, 6.91 2.33, 0.67 1" stroke="#1e1e1e" stroke-width="2" fill="none"></path></g><g transform="translate(435.8787198871014 1832.0107132026478) rotate(0 64.94018564947032 -0.03735175166298177)"><path d="M105.91 9.39 C112.72 7.88, 115.37 5.69, 129.38 0.77 M105.91 9.39 C115.98 5.41, 125.24 2.28, 129.38 0.77" stroke="#1e1e1e" stroke-width="2" fill="none"></path></g><g transform="translate(435.8787198871014 1832.0107132026478) rotate(0 64.94018564947032 -0.03735175166298177)"><path d="M105.86 -7.71 C112.55 -5.52, 115.21 -4.02, 129.38 0.77 M105.86 -7.71 C115.83 -5.02, 125.11 -1.49, 129.38 0.77" stroke="#1e1e1e" stroke-width="2" fill="none"></path></g></g><mask></mask><g transform="translate(10 678.9255044819804) rotate(0 194.60000610351562 275)"><text x="0" y="17.619999999999997" font-family="Excalifont, Xiaolai, Segoe UI Emoji" font-size="20px" fill="#1e1e1e" text-anchor="start" style="white-space: pre;" direction="ltr" dominant-baseline="alphabetic">Firmware Chip Acts </text><text x="0" y="42.62" font-family="Excalifont, Xiaolai, Segoe UI Emoji" font-size="20px" fill="#1e1e1e" text-anchor="start" style="white-space: pre;" direction="ltr" dominant-baseline="alphabetic">as a router to manage </text><text x="0" y="67.62" font-family="Excalifont, Xiaolai, Segoe UI Emoji" font-size="20px" fill="#1e1e1e" text-anchor="start" style="white-space: pre;" direction="ltr" dominant-baseline="alphabetic">the computers components</text><text x="0" y="92.62" font-family="Excalifont, Xiaolai, Segoe UI Emoji" font-size="20px" fill="#1e1e1e" text-anchor="start" style="white-space: pre;" direction="ltr" dominant-baseline="alphabetic"></text><text x="0" y="117.62" font-family="Excalifont, Xiaolai, Segoe UI Emoji" font-size="20px" fill="#1e1e1e" text-anchor="start" style="white-space: pre;" direction="ltr" dominant-baseline="alphabetic">where the </text><text x="0" y="142.62" font-family="Excalifont, Xiaolai, Segoe UI Emoji" font-size="20px" fill="#1e1e1e" text-anchor="start" style="white-space: pre;" direction="ltr" dominant-baseline="alphabetic">code / set of instructions </text><text x="0" y="167.62" font-family="Excalifont, Xiaolai, Segoe UI Emoji" font-size="20px" fill="#1e1e1e" text-anchor="start" style="white-space: pre;" direction="ltr" dominant-baseline="alphabetic">in the firmware chip gets </text><text x="0" y="192.62" font-family="Excalifont, Xiaolai, Segoe UI Emoji" font-size="20px" fill="#1e1e1e" text-anchor="start" style="white-space: pre;" direction="ltr" dominant-baseline="alphabetic">executed as it creates </text><text x="0" y="217.62" font-family="Excalifont, Xiaolai, Segoe UI Emoji" font-size="20px" fill="#1e1e1e" text-anchor="start" style="white-space: pre;" direction="ltr" dominant-baseline="alphabetic">path ways to for </text><text x="0" y="242.62" font-family="Excalifont, Xiaolai, Segoe UI Emoji" font-size="20px" fill="#1e1e1e" text-anchor="start" style="white-space: pre;" direction="ltr" dominant-baseline="alphabetic">which data to travel </text><text x="0" y="267.62" font-family="Excalifont, Xiaolai, Segoe UI Emoji" font-size="20px" fill="#1e1e1e" text-anchor="start" style="white-space: pre;" direction="ltr" dominant-baseline="alphabetic">in the Motherboard</text><text x="0" y="292.62" font-family="Excalifont, Xiaolai, Segoe UI Emoji" font-size="20px" fill="#1e1e1e" text-anchor="start" style="white-space: pre;" direction="ltr" dominant-baseline="alphabetic"></text><text x="0" y="317.62" font-family="Excalifont, Xiaolai, Segoe UI Emoji" font-size="20px" fill="#1e1e1e" text-anchor="start" style="white-space: pre;" direction="ltr" dominant-baseline="alphabetic">each component also has a </text><text x="0" y="342.62" font-family="Excalifont, Xiaolai, Segoe UI Emoji" font-size="20px" fill="#1e1e1e" text-anchor="start" style="white-space: pre;" direction="ltr" dominant-baseline="alphabetic">unique key aka Unique Address </text><text x="0" y="367.62" font-family="Excalifont, Xiaolai, Segoe UI Emoji" font-size="20px" fill="#1e1e1e" text-anchor="start" style="white-space: pre;" direction="ltr" dominant-baseline="alphabetic">for the firmware chip to </text><text x="0" y="392.62" font-family="Excalifont, Xiaolai, Segoe UI Emoji" font-size="20px" fill="#1e1e1e" text-anchor="start" style="white-space: pre;" direction="ltr" dominant-baseline="alphabetic">identify which component needs to be </text><text x="0" y="417.62" font-family="Excalifont, Xiaolai, Segoe UI Emoji" font-size="20px" fill="#1e1e1e" text-anchor="start" style="white-space: pre;" direction="ltr" dominant-baseline="alphabetic">utilize</text><text x="0" y="442.62" font-family="Excalifont, Xiaolai, Segoe UI Emoji" font-size="20px" fill="#1e1e1e" text-anchor="start" style="white-space: pre;" direction="ltr" dominant-baseline="alphabetic"></text><text x="0" y="467.62" font-family="Excalifont, Xiaolai, Segoe UI Emoji" font-size="20px" fill="#1e1e1e" text-anchor="start" style="white-space: pre;" direction="ltr" dominant-baseline="alphabetic">key note these unique key varies to </text><text x="0" y="492.62" font-family="Excalifont, Xiaolai, Segoe UI Emoji" font-size="20px" fill="#1e1e1e" text-anchor="start" style="white-space: pre;" direction="ltr" dominant-baseline="alphabetic">the motherboard support</text><text x="0" y="517.62" font-family="Excalifont, Xiaolai, Segoe UI Emoji" font-size="20px" fill="#1e1e1e" text-anchor="start" style="white-space: pre;" direction="ltr" dominant-baseline="alphabetic"></text><text x="0" y="542.62" font-family="Excalifont, Xiaolai, Segoe UI Emoji" font-size="20px" fill="#1e1e1e" text-anchor="start" style="white-space: pre;" direction="ltr" dominant-baseline="alphabetic">Bios is also stored in the Firmware Chip</text></g><g transform="translate(368.5714285714289 97.49693305340924) rotate(0 581.5499877929688 37.5)"><text x="0" y="17.619999999999997" font-family="Excalifont, Xiaolai, Segoe UI Emoji" font-size="20px" fill="#1e1e1e" text-anchor="start" style="white-space: pre;" direction="ltr" dominant-baseline="alphabetic">Logic Gates </text><text x="0" y="42.62" font-family="Excalifont, Xiaolai, Segoe UI Emoji" font-size="20px" fill="#1e1e1e" text-anchor="start" style="white-space: pre;" direction="ltr" dominant-baseline="alphabetic"> - are a bunch of 1 and 0 that acts like switch to the mother board which component is enabled and disabled</text><text x="0" y="67.62" font-family="Excalifont, Xiaolai, Segoe UI Emoji" font-size="20px" fill="#1e1e1e" text-anchor="start" style="white-space: pre;" direction="ltr" dominant-baseline="alphabetic">    and the motherboard utilizes this method to enable and disable a component based on the firmware chip instruction</text></g><g stroke-linecap="round"><g transform="translate(541.5690291836872 180.35407591055213) rotate(0 -104.28571428571468 83.57142857142856)"><path d="M-0.63 0.96 C-35.6 28.57, -173.8 138.55, -208.62 166.27 M1.24 0.41 C-33.99 28.11, -174.86 139.31, -209.59 167.35" stroke="#1e1e1e" stroke-width="2" fill="none"></path></g></g><mask></mask><g transform="translate(944.7944572839824 539.6243497164419) rotate(0 416.3500061035154 50)"><text x="0" y="17.619999999999997" font-family="Excalifont, Xiaolai, Segoe UI Emoji" font-size="20px" fill="#1e1e1e" text-anchor="start" style="white-space: pre;" direction="ltr" dominant-baseline="alphabetic">The CPU contains billions of logic gates and key components </text><text x="0" y="42.62" font-family="Excalifont, Xiaolai, Segoe UI Emoji" font-size="20px" fill="#1e1e1e" text-anchor="start" style="white-space: pre;" direction="ltr" dominant-baseline="alphabetic">like the ALU (which does math) and the Control Unit (which handles instruction flow)</text><text x="0" y="67.62" font-family="Excalifont, Xiaolai, Segoe UI Emoji" font-size="20px" fill="#1e1e1e" text-anchor="start" style="white-space: pre;" direction="ltr" dominant-baseline="alphabetic"></text><text x="0" y="92.62" font-family="Excalifont, Xiaolai, Segoe UI Emoji" font-size="20px" fill="#1e1e1e" text-anchor="start" style="white-space: pre;" direction="ltr" dominant-baseline="alphabetic">more logic gates the faster your computer performs</text></g><g transform="translate(934.0476190476193 711.0683616248373) rotate(0 369.8333435058594 25)"><text x="0" y="17.619999999999997" font-family="Excalifont, Xiaolai, Segoe UI Emoji" font-size="20px" fill="#1e1e1e" text-anchor="start" style="white-space: pre;" direction="ltr" dominant-baseline="alphabetic">the Ram acts as a cache for the CPU to store its finished instructions </text><text x="0" y="42.62" font-family="Excalifont, Xiaolai, Segoe UI Emoji" font-size="20px" fill="#1e1e1e" text-anchor="start" style="white-space: pre;" direction="ltr" dominant-baseline="alphabetic">so that the CPU does not need to repeat the task if it is already existing</text></g><g transform="translate(940.2380952380981 846.7826473391233) rotate(0 521.6500244140627 37.5)"><text x="0" y="17.619999999999997" font-family="Excalifont, Xiaolai, Segoe UI Emoji" font-size="20px" fill="#1e1e1e" text-anchor="start" style="white-space: pre;" direction="ltr" dominant-baseline="alphabetic">The GPU acts like a RAM and CPU combined into a single component that helps your computer run faster </text><text x="0" y="42.62" font-family="Excalifont, Xiaolai, Segoe UI Emoji" font-size="20px" fill="#1e1e1e" text-anchor="start" style="white-space: pre;" direction="ltr" dominant-baseline="alphabetic">it follows the same concept as RAM and CPU Relationship it was Design to help the CPU and RAM to</text><text x="0" y="67.62" font-family="Excalifont, Xiaolai, Segoe UI Emoji" font-size="20px" fill="#1e1e1e" text-anchor="start" style="white-space: pre;" direction="ltr" dominant-baseline="alphabetic">reduce Workloads and create a seamless relationship where the heavy task are being processed in the GPU</text></g><g transform="translate(936.1904761904784 1022.9731235295997) rotate(0 399.4166564941406 62.5)"><text x="0" y="17.619999999999997" font-family="Excalifont, Xiaolai, Segoe UI Emoji" font-size="20px" fill="#1e1e1e" text-anchor="start" style="white-space: pre;" direction="ltr" dominant-baseline="alphabetic">The Storage is a way to store your data from your computer </text><text x="0" y="42.62" font-family="Excalifont, Xiaolai, Segoe UI Emoji" font-size="20px" fill="#1e1e1e" text-anchor="start" style="white-space: pre;" direction="ltr" dominant-baseline="alphabetic">it works like </text><text x="0" y="67.62" font-family="Excalifont, Xiaolai, Segoe UI Emoji" font-size="20px" fill="#1e1e1e" text-anchor="start" style="white-space: pre;" direction="ltr" dominant-baseline="alphabetic">  Hard Disk - it uses a disk to create and read you data</text><text x="0" y="92.62" font-family="Excalifont, Xiaolai, Segoe UI Emoji" font-size="20px" fill="#1e1e1e" text-anchor="start" style="white-space: pre;" direction="ltr" dominant-baseline="alphabetic">  Solid State Drive ( SSD ) - it stores the electrons in an atomic level and traps </text><text x="0" y="117.62" font-family="Excalifont, Xiaolai, Segoe UI Emoji" font-size="20px" fill="#1e1e1e" text-anchor="start" style="white-space: pre;" direction="ltr" dominant-baseline="alphabetic">                                       using a special transistors to store your data   </text></g><g transform="translate(932.7917666806838 1232.5927003623785) rotate(0 628.0416870117188 225)"><text x="0" y="17.619999999999997" font-family="Excalifont, Xiaolai, Segoe UI Emoji" font-size="20px" fill="#1e1e1e" text-anchor="start" style="white-space: pre;" direction="ltr" dominant-baseline="alphabetic">The Monitor works in a way that it interacts with the GPU may that </text><text x="0" y="42.62" font-family="Excalifont, Xiaolai, Segoe UI Emoji" font-size="20px" fill="#1e1e1e" text-anchor="start" style="white-space: pre;" direction="ltr" dominant-baseline="alphabetic">GPU be a component or Integrated in the CPU</text><text x="0" y="67.62" font-family="Excalifont, Xiaolai, Segoe UI Emoji" font-size="20px" fill="#1e1e1e" text-anchor="start" style="white-space: pre;" direction="ltr" dominant-baseline="alphabetic">underneath it works like </text><text x="0" y="92.62" font-family="Excalifont, Xiaolai, Segoe UI Emoji" font-size="20px" fill="#1e1e1e" text-anchor="start" style="white-space: pre;" direction="ltr" dominant-baseline="alphabetic"></text><text x="0" y="117.62" font-family="Excalifont, Xiaolai, Segoe UI Emoji" font-size="20px" fill="#1e1e1e" text-anchor="start" style="white-space: pre;" direction="ltr" dominant-baseline="alphabetic">(Post Boot | When OS Present)</text><text x="0" y="142.62" font-family="Excalifont, Xiaolai, Segoe UI Emoji" font-size="20px" fill="#1e1e1e" text-anchor="start" style="white-space: pre;" direction="ltr" dominant-baseline="alphabetic">Kernel Sends a Render Request →</text><text x="0" y="167.62" font-family="Excalifont, Xiaolai, Segoe UI Emoji" font-size="20px" fill="#1e1e1e" text-anchor="start" style="white-space: pre;" direction="ltr" dominant-baseline="alphabetic">GPU processes that request and renders a frame →</text><text x="0" y="192.62" font-family="Excalifont, Xiaolai, Segoe UI Emoji" font-size="20px" fill="#1e1e1e" text-anchor="start" style="white-space: pre;" direction="ltr" dominant-baseline="alphabetic">Sends the frame to the selected monitor through system video output (HDMI or DisplayPort) using hardware-level addressing →</text><text x="0" y="217.62" font-family="Excalifont, Xiaolai, Segoe UI Emoji" font-size="20px" fill="#1e1e1e" text-anchor="start" style="white-space: pre;" direction="ltr" dominant-baseline="alphabetic">The monitor’s firmware interprets the signal and manages how the image is displayed (scaling, resolution, etc.) →</text><text x="0" y="242.62" font-family="Excalifont, Xiaolai, Segoe UI Emoji" font-size="20px" fill="#1e1e1e" text-anchor="start" style="white-space: pre;" direction="ltr" dominant-baseline="alphabetic">It gets painted to your screen</text><text x="0" y="267.62" font-family="Excalifont, Xiaolai, Segoe UI Emoji" font-size="20px" fill="#1e1e1e" text-anchor="start" style="white-space: pre;" direction="ltr" dominant-baseline="alphabetic"></text><text x="0" y="292.62" font-family="Excalifont, Xiaolai, Segoe UI Emoji" font-size="20px" fill="#1e1e1e" text-anchor="start" style="white-space: pre;" direction="ltr" dominant-baseline="alphabetic"></text><text x="0" y="317.62" font-family="Excalifont, Xiaolai, Segoe UI Emoji" font-size="20px" fill="#1e1e1e" text-anchor="start" style="white-space: pre;" direction="ltr" dominant-baseline="alphabetic">(Pre Boot | Without OS)</text><text x="0" y="342.62" font-family="Excalifont, Xiaolai, Segoe UI Emoji" font-size="20px" fill="#1e1e1e" text-anchor="start" style="white-space: pre;" direction="ltr" dominant-baseline="alphabetic">Firmware initializes the GPU and monitor →</text><text x="0" y="367.62" font-family="Excalifont, Xiaolai, Segoe UI Emoji" font-size="20px" fill="#1e1e1e" text-anchor="start" style="white-space: pre;" direction="ltr" dominant-baseline="alphabetic">Displays basic output (like the POST screen or BIOS UI) →</text><text x="0" y="392.62" font-family="Excalifont, Xiaolai, Segoe UI Emoji" font-size="20px" fill="#1e1e1e" text-anchor="start" style="white-space: pre;" direction="ltr" dominant-baseline="alphabetic">Uses firmware-level display protocols like VESA BIOS Extensions (VBE) or Graphics Output Protocol (GOP) to render to screen</text><text x="0" y="417.62" font-family="Excalifont, Xiaolai, Segoe UI Emoji" font-size="20px" fill="#1e1e1e" text-anchor="start" style="white-space: pre;" direction="ltr" dominant-baseline="alphabetic"></text><text x="0" y="442.62" font-family="Excalifont, Xiaolai, Segoe UI Emoji" font-size="20px" fill="#1e1e1e" text-anchor="start" style="white-space: pre;" direction="ltr" dominant-baseline="alphabetic">Note The Monitor Have its own motherboard and firmware chip</text></g><g transform="translate(933.1170021023399 1813.3286060561559) rotate(0 372.26666259765625 12.5)"><text x="0" y="17.619999999999997" font-family="Excalifont, Xiaolai, Segoe UI Emoji" font-size="20px" fill="#1e1e1e" text-anchor="start" style="white-space: pre;" direction="ltr" dominant-baseline="alphabetic">The Additional Components Varies Depends if the Motherboard Supports it </text></g><g stroke-linecap="round" transform="translate(2077.337283394288 1095.4201348080212) rotate(0 182.60343708461414 66.53566533447474)"><path d="M32 0 C96.83 -2.56, 161.29 0.02, 333.21 0 M32 0 C140.51 2.16, 249.63 1.45, 333.21 0 M333.21 0 C353.44 -0.15, 364 10.21, 365.21 32 M333.21 0 C356.41 1.89, 363.4 12.49, 365.21 32 M365.21 32 C365.81 50.86, 366.74 67.78, 365.21 101.07 M365.21 32 C365.79 49.38, 365.96 69.3, 365.21 101.07 M365.21 101.07 C367.18 122.67, 355.1 131.4, 333.21 133.07 M365.21 101.07 C365.51 122.78, 354.52 134.83, 333.21 133.07 M333.21 133.07 C220.58 132.62, 104.42 132.87, 32 133.07 M333.21 133.07 C216.26 134.48, 100.96 134.65, 32 133.07 M32 133.07 C12.5 131.57, -1.65 124.31, 0 101.07 M32 133.07 C8.57 131.5, -1.38 122.53, 0 101.07 M0 101.07 C-2 83.08, 0 68.14, 0 32 M0 101.07 C-1.24 77.14, 0.02 52.77, 0 32 M0 32 C-0.37 10.03, 10.21 0.78, 32 0 M0 32 C0.68 8.62, 10.09 1.8, 32 0" stroke="#1e1e1e" stroke-width="2" fill="none"></path></g><g transform="translate(2231.840720097433 1149.455800142496) rotate(0 28.100000381469727 12.5)"><text x="28.100000381469727" y="17.619999999999997" font-family="Excalifont, Xiaolai, Segoe UI Emoji" font-size="20px" fill="#1e1e1e" text-anchor="middle" style="white-space: pre;" direction="ltr" dominant-baseline="alphabetic">Kernel</text></g><g stroke-linecap="round" transform="translate(2762.2341421739197 1096.7860598556167) rotate(0 182.60343708461414 66.53566533447474)"><path d="M32 0 C137.35 -0.68, 239.75 -0.96, 333.21 0 M32 0 C111.08 -0.34, 188.81 -0.43, 333.21 0 M333.21 0 C355.72 1.28, 363.44 11.6, 365.21 32 M333.21 0 C353.06 0.73, 366.16 8.99, 365.21 32 M365.21 32 C367.13 55.46, 364.7 76.05, 365.21 101.07 M365.21 32 C365 50.91, 365.85 69.45, 365.21 101.07 M365.21 101.07 C366.84 120.59, 354.98 133.48, 333.21 133.07 M365.21 101.07 C366.91 124.17, 352.71 134.22, 333.21 133.07 M333.21 133.07 C236.57 132.66, 138 132.7, 32 133.07 M333.21 133.07 C241.73 132.27, 149.02 132.23, 32 133.07 M32 133.07 C10.09 134.49, 0.16 123.28, 0 101.07 M32 133.07 C9.72 132.8, -2.02 123.68, 0 101.07 M0 101.07 C-1.57 84.2, 0.27 66.97, 0 32 M0 101.07 C-0.14 81.99, 0.68 61.1, 0 32 M0 32 C1.57 8.78, 12.42 1.1, 32 0 M0 32 C-1.09 12.01, 8.4 1.44, 32 0" stroke="#1e1e1e" stroke-width="2" fill="none"></path></g><g transform="translate(2930.9542460523576 1150.8217251900915) rotate(0 13.883333206176758 12.5)"><text x="13.883333206176758" y="17.619999999999997" font-family="Excalifont, Xiaolai, Segoe UI Emoji" font-size="20px" fill="#1e1e1e" text-anchor="middle" style="white-space: pre;" direction="ltr" dominant-baseline="alphabetic">OS</text></g><g transform="translate(2112.57670011455 1266.5148496605527) rotate(0 400.9166564941406 25)"><text x="0" y="17.619999999999997" font-family="Excalifont, Xiaolai, Segoe UI Emoji" font-size="20px" fill="#1e1e1e" text-anchor="start" style="white-space: pre;" direction="ltr" dominant-baseline="alphabetic">Storage Device Varies if it has a Kernel Stored inside as the Kernel it works as a </text><text x="0" y="42.62" font-family="Excalifont, Xiaolai, Segoe UI Emoji" font-size="20px" fill="#1e1e1e" text-anchor="start" style="white-space: pre;" direction="ltr" dominant-baseline="alphabetic">Gateway for your OS to interact with the other components in the motherboard</text></g><g transform="translate(2997.2419856694282 954.4685787928336) rotate(0 363.5666809082031 50)"><text x="0" y="17.619999999999997" font-family="Excalifont, Xiaolai, Segoe UI Emoji" font-size="20px" fill="#1e1e1e" text-anchor="start" style="white-space: pre;" direction="ltr" dominant-baseline="alphabetic">Your Operating System is the one who utilizes the resources of your </text><text x="0" y="42.62" font-family="Excalifont, Xiaolai, Segoe UI Emoji" font-size="20px" fill="#1e1e1e" text-anchor="start" style="white-space: pre;" direction="ltr" dominant-baseline="alphabetic">computer for each component it is the one responsible sending the set of </text><text x="0" y="67.62" font-family="Excalifont, Xiaolai, Segoe UI Emoji" font-size="20px" fill="#1e1e1e" text-anchor="start" style="white-space: pre;" direction="ltr" dominant-baseline="alphabetic">instructions to the kernel to be processed by the components </text><text x="0" y="92.62" font-family="Excalifont, Xiaolai, Segoe UI Emoji" font-size="20px" fill="#1e1e1e" text-anchor="start" style="white-space: pre;" direction="ltr" dominant-baseline="alphabetic">and return the response based on the requested workload</text></g><g stroke-linecap="round"><g transform="translate(2756.288105516664 1164.9315792189022) rotate(0 -153.2020811972975 -1.1543749461271773)"><path d="M0.72 0.73 C-50.26 0.5, -255.76 -0.59, -307.02 -1.25 M-0.36 0.07 C-50.84 -0.49, -253.38 -2.41, -304.64 -2.82" stroke="#1e1e1e" stroke-width="2" fill="none"></path></g><g transform="translate(2756.288105516664 1164.9315792189022) rotate(0 -153.2020811972975 -1.1543749461271773)"><path d="M-22.82 9.15 C-16.78 6.24, -11.39 4.78, 0.72 0.73 M-22.82 9.15 C-16.94 6.52, -13.31 6.23, 0.72 0.73" stroke="#1e1e1e" stroke-width="2" fill="none"></path></g><g transform="translate(2756.288105516664 1164.9315792189022) rotate(0 -153.2020811972975 -1.1543749461271773)"><path d="M-22.72 -7.96 C-16.68 -7.34, -11.31 -5.29, 0.72 0.73 M-22.72 -7.96 C-16.75 -6.76, -13.14 -3.23, 0.72 0.73" stroke="#1e1e1e" stroke-width="2" fill="none"></path></g><g transform="translate(2756.288105516664 1164.9315792189022) rotate(0 -153.2020811972975 -1.1543749461271773)"><path d="M-281.07 -11.16 C-284.69 -10.33, -288.98 -8.35, -304.64 -2.82 M-281.07 -11.16 C-285.6 -9.88, -292.5 -6.43, -304.64 -2.82" stroke="#1e1e1e" stroke-width="2" fill="none"></path></g><g transform="translate(2756.288105516664 1164.9315792189022) rotate(0 -153.2020811972975 -1.1543749461271773)"><path d="M-281.22 5.94 C-284.83 3.25, -289.09 1.72, -304.64 -2.82 M-281.22 5.94 C-285.84 3.4, -292.7 3.03, -304.64 -2.82" stroke="#1e1e1e" stroke-width="2" fill="none"></path></g></g><mask></mask><g stroke-linecap="round"><g transform="translate(717.6241450987659 1166.9277372322979) rotate(0 0.7077633714902731 -19.39271637883337)"><path d="M0.37 -0.35 C0.45 -6.7, 0.63 -32.09, 0.88 -38.49 M-0.1 0.67 C0.1 -5.82, 1.53 -32.84, 1.84 -39.31" stroke="#1e1e1e" stroke-width="2" fill="none"></path></g><g transform="translate(717.6241450987659 1166.9277372322979) rotate(0 0.7077633714902731 -19.39271637883337)"><path d="M7.55 -20.76 C4.88 -28.57, 3.89 -33.71, 1.84 -39.31 M7.55 -20.76 C6.18 -25.98, 3.97 -32.25, 1.84 -39.31" stroke="#1e1e1e" stroke-width="2" fill="none"></path></g><g transform="translate(717.6241450987659 1166.9277372322979) rotate(0 0.7077633714902731 -19.39271637883337)"><path d="M-5.71 -21.43 C-3.45 -29.04, 0.47 -33.93, 1.84 -39.31 M-5.71 -21.43 C-3.04 -26.48, -1.2 -32.54, 1.84 -39.31" stroke="#1e1e1e" stroke-width="2" fill="none"></path></g></g><mask></mask><g stroke-linecap="round"><g transform="translate(716.4880678010632 1167.8414619019768) rotate(0 671.7894840785286 -1.965045765915761)"><path d="M-1.15 -0.98 C223.08 -1.79, 1120.14 -4.22, 1344.23 -4.87 M0.44 1.13 C224.67 0.43, 1119.94 -2.96, 1343.62 -3.82" stroke="#1e1e1e" stroke-width="2" fill="none"></path></g><g transform="translate(716.4880678010632 1167.8414619019768) rotate(0 671.7894840785286 -1.965045765915761)"><path d="M1320.16 4.82 C1323.3 4.38, 1328.12 1.25, 1343.62 -3.82 M1320.16 4.82 C1324.97 3.48, 1330.86 1.31, 1343.62 -3.82" stroke="#1e1e1e" stroke-width="2" fill="none"></path></g><g transform="translate(716.4880678010632 1167.8414619019768) rotate(0 671.7894840785286 -1.965045765915761)"><path d="M1320.1 -12.28 C1323.25 -9.25, 1328.08 -8.91, 1343.62 -3.82 M1320.1 -12.28 C1324.81 -9.83, 1330.71 -8.21, 1343.62 -3.82" stroke="#1e1e1e" stroke-width="2" fill="none"></path></g></g><mask></mask><g stroke-linecap="round" transform="translate(2373.1256280258217 561.9502765470179) rotate(0 249.95874233114046 63.69605016932536)"><path d="M31.85 0 C132.73 -2.52, 234.72 -2.45, 468.07 0 M31.85 0 C192.35 0.97, 353.15 0.96, 468.07 0 M468.07 0 C487.85 0.48, 501.53 8.91, 499.92 31.85 M468.07 0 C488.85 -0.74, 500.52 12.24, 499.92 31.85 M499.92 31.85 C500.99 46.93, 499.12 61, 499.92 95.54 M499.92 31.85 C499.33 54.37, 500.1 77.91, 499.92 95.54 M499.92 95.54 C499.69 116.06, 490.11 126.9, 468.07 127.39 M499.92 95.54 C499.23 118.37, 489.26 126.28, 468.07 127.39 M468.07 127.39 C340.59 126.38, 215.36 126.83, 31.85 127.39 M468.07 127.39 C320.79 126.13, 173.53 125.93, 31.85 127.39 M31.85 127.39 C10.78 126.5, -0.74 115.81, 0 95.54 M31.85 127.39 C9.01 128.04, 1.51 117.78, 0 95.54 M0 95.54 C-0.67 74.8, -1.06 55.14, 0 31.85 M0 95.54 C-1.16 80.97, -1.38 64.84, 0 31.85 M0 31.85 C1.16 9.04, 10.79 -1.88, 31.85 0 M0 31.85 C1.84 11.16, 10.17 -1.83, 31.85 0" stroke="#1e1e1e" stroke-width="2" fill="none"></path></g><g transform="translate(2523.4343688310832 613.1463267163433) rotate(0 99.6500015258789 12.5)"><text x="99.6500015258789" y="17.619999999999997" font-family="Excalifont, Xiaolai, Segoe UI Emoji" font-size="20px" fill="#1e1e1e" text-anchor="middle" style="white-space: pre;" direction="ltr" dominant-baseline="alphabetic">Low Level Languages</text></g><g stroke-linecap="round" transform="translate(2380.2303530181257 366.38575100055886) rotate(0 249.95874233114046 63.69605016932536)"><path d="M31.85 0 C196.07 0.32, 359.22 0.6, 468.07 0 M31.85 0 C148.73 1.49, 264.84 1.9, 468.07 0 M468.07 0 C489.88 0.16, 498.18 9.03, 499.92 31.85 M468.07 0 C490.52 1.13, 500.72 12.23, 499.92 31.85 M499.92 31.85 C499.01 51.86, 498.75 70.4, 499.92 95.54 M499.92 31.85 C500.41 50.69, 499.31 68.76, 499.92 95.54 M499.92 95.54 C498.86 117.31, 489.58 127.32, 468.07 127.39 M499.92 95.54 C501.39 117.51, 490.53 129.2, 468.07 127.39 M468.07 127.39 C321.88 129.43, 177.32 128.72, 31.85 127.39 M468.07 127.39 C304.9 128.7, 141.02 129.58, 31.85 127.39 M31.85 127.39 C11.52 127.02, 1.96 117.77, 0 95.54 M31.85 127.39 C8.63 128.79, -1.51 115.93, 0 95.54 M0 95.54 C0.44 78.54, -0.43 65.41, 0 31.85 M0 95.54 C-0.28 79.14, -1.04 62.45, 0 31.85 M0 31.85 C-1.44 10.38, 10.78 -0.31, 31.85 0 M0 31.85 C1.27 10.76, 10.91 0.89, 31.85 0" stroke="#1e1e1e" stroke-width="2" fill="none"></path></g><g transform="translate(2506.3890922975083 417.5818011698843) rotate(0 123.80000305175781 12.5)"><text x="123.80000305175781" y="17.619999999999997" font-family="Excalifont, Xiaolai, Segoe UI Emoji" font-size="20px" fill="#1e1e1e" text-anchor="middle" style="white-space: pre;" direction="ltr" dominant-baseline="alphabetic">Systems Level Application</text></g><g stroke-linecap="round" transform="translate(2392.160536356591 189.1579671695116) rotate(0 249.95874233114046 63.69605016932533)"><path d="M31.85 0 C186.7 -0.39, 342.36 -0.41, 468.07 0 M31.85 0 C140.2 0.35, 248.04 -0.26, 468.07 0 M468.07 0 C487.89 -0.84, 500.72 9.99, 499.92 31.85 M468.07 0 C490.88 0.04, 498.18 11.21, 499.92 31.85 M499.92 31.85 C500.44 51.48, 498.41 73.89, 499.92 95.54 M499.92 31.85 C500.73 51.51, 499.25 72.31, 499.92 95.54 M499.92 95.54 C499.92 118.24, 487.55 129.38, 468.07 127.39 M499.92 95.54 C499.72 115.3, 490.72 126.74, 468.07 127.39 M468.07 127.39 C354 126.3, 240.56 127, 31.85 127.39 M468.07 127.39 C365.33 127.94, 262.09 128.3, 31.85 127.39 M31.85 127.39 C11.68 125.94, 1.41 116.62, 0 95.54 M31.85 127.39 C9.38 128.73, 1.24 117.91, 0 95.54 M0 95.54 C0.35 75.55, -0.71 60.06, 0 31.85 M0 95.54 C0.85 78.92, -0.18 62.77, 0 31.85 M0 31.85 C0.92 10.59, 9.26 0.27, 31.85 0 M0 31.85 C2.04 10.49, 10.02 0.41, 31.85 0" stroke="#1e1e1e" stroke-width="2" fill="none"></path></g><g transform="translate(2541.452614564196 240.35401733883697) rotate(0 100.66666412353516 12.5)"><text x="100.66666412353516" y="17.619999999999997" font-family="Excalifont, Xiaolai, Segoe UI Emoji" font-size="20px" fill="#1e1e1e" text-anchor="middle" style="white-space: pre;" direction="ltr" dominant-baseline="alphabetic">High Level Languages</text></g><g stroke-linecap="round" transform="translate(2398.3001696796614 10) rotate(0 249.95874233114046 63.69605016932536)"><path d="M31.85 0 C141.47 0.54, 252.02 0.88, 468.07 0 M31.85 0 C177.56 -1.51, 323.81 -1.91, 468.07 0 M468.07 0 C490.7 -1.47, 501.03 12, 499.92 31.85 M468.07 0 C490.67 -0.75, 500.66 9.9, 499.92 31.85 M499.92 31.85 C500.55 44.25, 501.46 61.37, 499.92 95.54 M499.92 31.85 C499.63 49.66, 499.61 66.82, 499.92 95.54 M499.92 95.54 C498.25 117.71, 489.14 126.49, 468.07 127.39 M499.92 95.54 C498.24 118.78, 489.68 128.16, 468.07 127.39 M468.07 127.39 C359.02 126.3, 249.16 126.48, 31.85 127.39 M468.07 127.39 C377.53 129.32, 287.44 129.47, 31.85 127.39 M31.85 127.39 C9.91 127.32, 0.05 118.43, 0 95.54 M31.85 127.39 C10.46 127.5, -2.08 117.02, 0 95.54 M0 95.54 C0.52 74.65, -0.9 55.55, 0 31.85 M0 95.54 C0.87 74.66, 0.56 55.83, 0 31.85 M0 31.85 C0.83 10.04, 10.14 -0.33, 31.85 0 M0 31.85 C-0.27 11.96, 9.73 0.39, 31.85 0" stroke="#1e1e1e" stroke-width="2" fill="none"></path></g><g transform="translate(2539.5589150625597 61.19605016932536) rotate(0 108.69999694824219 12.5)"><text x="108.69999694824219" y="17.619999999999997" font-family="Excalifont, Xiaolai, Segoe UI Emoji" font-size="20px" fill="#1e1e1e" text-anchor="middle" style="white-space: pre;" direction="ltr" dominant-baseline="alphabetic">High Level Applications</text></g><g transform="translate(2505.3431867106333 945.0916692322021) rotate(0 101.18333435058594 12.5)"><text x="0" y="17.619999999999997" font-family="Excalifont, Xiaolai, Segoe UI Emoji" font-size="20px" fill="#1e1e1e" text-anchor="start" style="white-space: pre;" direction="ltr" dominant-baseline="alphabetic">THE HOLY TRINITY</text></g><g stroke-linecap="round"><g transform="translate(2267.930636079513 1078.2743195862458) rotate(0 119.67136698479271 -187.22778383104713)"><path d="M-0.57 -0.51 C38.96 -62.81, 198.26 -312.33, 238.29 -374.84 M1.33 -1.83 C41.12 -63.86, 200.84 -311.33, 240.45 -373.5" stroke="#1e1e1e" stroke-width="2" fill="none"></path></g><g transform="translate(2267.930636079513 1078.2743195862458) rotate(0 119.67136698479271 -187.22778383104713)"><path d="M234.96 -349.11 C236.47 -360.43, 238.86 -367.81, 240.45 -373.5 M234.96 -349.11 C235.9 -353.73, 237.22 -359.07, 240.45 -373.5" stroke="#1e1e1e" stroke-width="2" fill="none"></path></g><g transform="translate(2267.930636079513 1078.2743195862458) rotate(0 119.67136698479271 -187.22778383104713)"><path d="M220.56 -358.35 C227.66 -365.97, 235.71 -369.71, 240.45 -373.5 M220.56 -358.35 C224.43 -361.13, 228.75 -364.55, 240.45 -373.5" stroke="#1e1e1e" stroke-width="2" fill="none"></path></g></g><mask></mask><g stroke-linecap="round"><g transform="translate(2737.930278995594 698.9932935779907) rotate(0 96.50916692322016 195.43106301952093)"><path d="M-0.28 -1.14 C31.95 63.91, 160.52 325.77, 192.74 391.05 M1.77 0.87 C33.88 65.47, 159.89 323.89, 191.65 389.03" stroke="#1e1e1e" stroke-width="2" fill="none"></path></g><g transform="translate(2737.930278995594 698.9932935779907) rotate(0 96.50916692322016 195.43106301952093)"><path d="M173.66 371.67 C176.26 375.49, 182.87 380.26, 191.65 389.03 M173.66 371.67 C178.77 377.15, 183.55 380.91, 191.65 389.03" stroke="#1e1e1e" stroke-width="2" fill="none"></path></g><g transform="translate(2737.930278995594 698.9932935779907) rotate(0 96.50916692322016 195.43106301952093)"><path d="M189.03 364.17 C187.92 369.78, 190.78 376.39, 191.65 389.03 M189.03 364.17 C189.86 371.64, 190.39 377.47, 191.65 389.03" stroke="#1e1e1e" stroke-width="2" fill="none"></path></g></g><mask></mask><g stroke-linecap="round"><g transform="translate(2903.9260461035415 89.05535862323865) rotate(0 46.80694595776231 94.57898358475578)"><path d="M0.06 0.48 C17.05 21.88, 102.19 97.1, 100.95 128.37 C99.72 159.63, 10.66 177.77, -7.35 188.09 M-1.37 -0.31 C15.52 20.77, 100.89 95.23, 99.8 126.75 C98.71 158.28, 9.8 178.59, -7.92 188.85" stroke="#1e1e1e" stroke-width="2" fill="none"></path></g><g transform="translate(2903.9260461035415 89.05535862323865) rotate(0 46.80694595776231 94.57898358475578)"><path d="M10.88 172.38 C7.6 175.33, 4.34 180.16, -7.92 188.85 M10.88 172.38 C7.3 176.19, 2.27 179.54, -7.92 188.85" stroke="#1e1e1e" stroke-width="2" fill="none"></path></g><g transform="translate(2903.9260461035415 89.05535862323865) rotate(0 46.80694595776231 94.57898358475578)"><path d="M17.07 188.33 C12.45 187.81, 7.84 189.18, -7.92 188.85 M17.07 188.33 C12.1 188.82, 5.76 188.8, -7.92 188.85" stroke="#1e1e1e" stroke-width="2" fill="none"></path></g></g><mask></mask><g stroke-linecap="round"><g transform="translate(2385.671819725849 256.0162174004096) rotate(0 -69.48660018471855 85.41061272704988)"><path d="M1.08 0.22 C-22.07 20.56, -137.1 93, -138.29 121.44 C-139.47 149.89, -27.98 162.67, -6.03 170.89 M0.19 -0.71 C-23.12 19.34, -137.69 90.92, -138.87 119.75 C-140.06 148.57, -28.95 163.56, -6.93 172.24" stroke="#1e1e1e" stroke-width="2" fill="none"></path></g><g transform="translate(2385.671819725849 256.0162174004096) rotate(0 -69.48660018471855 85.41061272704988)"><path d="M-31.8 174.77 C-22.58 174.79, -12.75 172.35, -6.93 172.24 M-31.8 174.77 C-24.58 174.96, -15.92 173.23, -6.93 172.24" stroke="#1e1e1e" stroke-width="2" fill="none"></path></g><g transform="translate(2385.671819725849 256.0162174004096) rotate(0 -69.48660018471855 85.41061272704988)"><path d="M-27.61 158.19 C-19.96 164.15, -11.62 167.59, -6.93 172.24 M-27.61 158.19 C-21.78 163.45, -14.4 166.78, -6.93 172.24" stroke="#1e1e1e" stroke-width="2" fill="none"></path></g></g><mask></mask><g stroke-linecap="round"><g transform="translate(2885.58930438813 431.6629012006703) rotate(0 43.911670950064945 102.78226277322955)"><path d="M-0.21 -0.19 C16.89 26.99, 104.74 127.88, 102.53 162.3 C100.32 196.71, 5.91 199.18, -13.47 206.3 M-1.77 -1.34 C15.28 26.13, 104.29 129.64, 102.21 163.92 C100.14 198.2, 5.09 197.36, -14.21 204.34" stroke="#1e1e1e" stroke-width="2" fill="none"></path></g><g transform="translate(2885.58930438813 431.6629012006703) rotate(0 43.911670950064945 102.78226277322955)"><path d="M7.63 192.18 C0.8 197.72, -5.04 199.38, -14.21 204.34 M7.63 192.18 C-0.32 195.56, -8.04 201.46, -14.21 204.34" stroke="#1e1e1e" stroke-width="2" fill="none"></path></g><g transform="translate(2885.58930438813 431.6629012006703) rotate(0 43.911670950064945 102.78226277322955)"><path d="M10.34 209.07 C2.82 209.63, -3.82 206.31, -14.21 204.34 M10.34 209.07 C1.44 206.34, -7.26 206.13, -14.21 204.34" stroke="#1e1e1e" stroke-width="2" fill="none"></path></g></g><mask></mask></svg>